<svg xmlns="http://www.w3.org/2000/svg" width="169.753" height="168.753"><defs><clipPath id="a"><path fill="none" d="M0 0h169.753v168.753H0z"/></clipPath></defs><g data-name="Component 1 – 1" clip-path="url(#a)"><g data-name="Group 1" transform="translate(-661.604 -545)"><circle cx="14.5" cy="14.5" r="14.5" transform="translate(732 615)" fill="#dc6104"/><g transform="translate(-2496 -1314)" fill="#b72c01"><circle data-name="Ellipse 4" cx="3" cy="3" r="3" transform="translate(3248 1918)"/><circle data-name="Ellipse 5" cx="3" cy="3" r="3" transform="translate(3257 1923)"/><circle data-name="Ellipse 6" cx="3" cy="3" r="3" transform="translate(3262 1931)"/><circle data-name="Ellipse 7" cx="3" cy="3" r="3" transform="translate(3264 1940)"/><circle data-name="Ellipse 8" cx="3" cy="3" r="3" transform="translate(3262 1950)"/><circle data-name="Ellipse 9" cx="3" cy="3" r="3" transform="translate(3257 1958)"/><circle data-name="Ellipse 10" cx="3" cy="3" r="3" transform="translate(3248 1963)"/><circle data-name="Ellipse 11" cx="3" cy="3" r="3" transform="translate(3239 1964)"/><circle data-name="Ellipse 12" cx="3" cy="3" r="3" transform="translate(3230 1963)"/><circle data-name="Ellipse 13" cx="3" cy="3" r="3" transform="translate(3221 1958)"/><circle data-name="Ellipse 14" cx="3" cy="3" r="3" transform="translate(3217 1950)"/><circle data-name="Ellipse 15" cx="3" cy="3" r="3" transform="translate(3215 1940)"/><circle data-name="Ellipse 16" cx="3" cy="3" r="3" transform="translate(3217 1930)"/><circle data-name="Ellipse 17" cx="3" cy="3" r="3" transform="translate(3222 1923)"/><circle data-name="Ellipse 18" cx="3" cy="3" r="3" transform="translate(3230 1918)"/><circle data-name="Ellipse 19" cx="3" cy="3" r="3" transform="translate(3239 1917)"/></g></g><g data-name="Group 2" fill="#932323"><path data-name="Union 1" d="M99.584 32.444c-12.93-4.241-14.688 14.794-14.688 14.794l-.043-1.062c-.409-2.946-3.042-17.553-14.684-13.734-12.928 4.243-4.964 15.311-4.964 15.311s-3.828-.315-7.965-4.448S58.896 26.338 69.446 25.1c9.3-1.094 14.357 12.514 15.427 15.76 1.048-3.186 6.108-16.857 15.435-15.76 10.55 1.238 16.343 14.068 12.205 18.205s-7.964 4.448-7.964 4.448 7.964-11.068-4.965-15.309z"/><path data-name="Polygon 1" d="M84.396 0l3 32h-6z"/></g><g data-name="Group 3" fill="#932323"><path data-name="Union 1" d="M137.309 99.584c4.24-12.929-14.794-14.688-14.794-14.688l1.062-.043c2.946-.409 17.553-3.042 13.734-14.684C133.068 57.241 122 65.205 122 65.205s.315-3.828 4.447-7.965 16.968 1.656 18.206 12.206c1.094 9.3-12.514 14.357-15.76 15.427 3.185 1.048 16.857 6.108 15.76 15.436-1.238 10.549-14.068 16.342-18.206 12.205s-4.448-7.964-4.448-7.964 11.069 7.964 15.31-4.966z"/><path data-name="Polygon 1" d="M169.753 84.396l-32 3v-6z"/></g><g data-name="Group 5" fill="#932323"><path data-name="Union 1" d="M99.584 136.309c-12.929 4.241-14.688-14.796-14.688-14.796l-.043 1.062c-.409 2.946-3.042 17.553-14.684 13.734C57.241 132.068 65.205 121 65.205 121s-3.828.31-7.965 4.448 1.656 16.963 12.206 18.205c9.3 1.094 14.357-12.514 15.427-15.76 1.048 3.186 6.109 16.857 15.436 15.76 10.55-1.242 16.342-14.068 12.2-18.205s-7.96-4.448-7.96-4.448 7.964 11.068-4.965 15.309z"/><path data-name="Polygon 1" d="M84.396 168.753l-3-32h6z"/></g><g data-name="Group 6" fill="#932323"><path data-name="Union 1" d="M32.444 99.584C28.203 86.655 47.24 84.896 47.24 84.896l-1.062-.043c-2.946-.409-17.553-3.042-13.734-14.684 4.241-12.928 15.309-4.964 15.309-4.964s-.311-3.828-4.448-7.965S26.342 58.896 25.1 69.446c-1.094 9.3 12.514 14.357 15.76 15.427-3.186 1.048-16.857 6.109-15.76 15.436 1.242 10.55 14.068 16.342 18.205 12.2s4.448-7.96 4.448-7.96-11.068 7.964-15.309-4.965z"/><path data-name="Polygon 1" d="M0 84.396l32-3v6z"/></g></g></svg>